<svg xmlns="https://www.w3.org/2000/svg" xmlns:xlink="https://www.w3.org/1999/xlink" width="18" height="18" viewBox="0 0 18 18"><defs><path id="bpnpn3yn0a" d="M7.554 14.813h3.183a1.689 1.689 0 01-3.183 0zm1.592 2.25a2.813 2.813 0 002.812-2.813.563.563 0 00-.562-.563h-7.5c-.31 0-.541-.014-.699-.04.018-.036.04-.077.066-.123.036-.065.354-.605.46-.8.477-.875.735-1.676.735-2.599V6.75c0-2.656 2.057-4.688 4.688-4.688 2.63 0 4.687 2.032 4.687 4.688v3.375c0 .923.258 1.724.736 2.6.106.194.424.734.46.799.026.046.047.087.065.123-.157.026-.389.04-.698.04a.564.564 0 000 1.126c1.263 0 1.896-.221 1.896-1.002 0-.26-.092-.494-.28-.833-.045-.083-.361-.619-.456-.792-.395-.724-.598-1.355-.598-2.061V6.75c0-3.28-2.563-5.813-5.812-5.813S3.333 3.47 3.333 6.75v3.375c0 .706-.203 1.337-.598 2.06-.094.174-.41.71-.456.793-.188.339-.279.572-.279.833 0 .78.632 1.002 1.896 1.002H6.39a2.813 2.813 0 002.756 2.25z"></path></defs><g fill="none" fill-rule="evenodd"><g transform="translate(-1079 -16) translate(224 7) translate(855 9)"><mask id="1dencd96ob" fill="#fff"><use xlink:href="#bpnpn3yn0a"></use></mask><use fill-rule="nonzero" stroke="currentColor" stroke-width=".3" xlink:href="#bpnpn3yn0a"></use><g fill="currentColor" mask="url(#1dencd96ob)"><path d="M0 0H18V18H0z"></path></g></g></g></svg>